<?xml version="1.0" encoding="UTF-8" standalone="no"?>
<svg
  xmlns:dc="http://purl.org/dc/elements/1.1/"
  xmlns:cc="http://creativecommons.org/ns#"
  xmlns:rdf="http://www.w3.org/1999/02/22-rdf-syntax-ns#"
  xmlns:svg="http://www.w3.org/2000/svg"
  xmlns="http://www.w3.org/2000/svg"
  viewBox="0 0 793.70081 1122.5197"
  height="1122.5197"
  width="793.70081"
  xml:space="preserve"
  id="svg2"
  version="1.1"><metadata
    id="metadata8"><rdf:RDF><cc:Work
        rdf:about=""><dc:format>image/svg+xml</dc:format><dc:type
          rdf:resource="http://purl.org/dc/dcmitype/StillImage" /></cc:Work></rdf:RDF></metadata><defs
    id="defs6"><clipPath
      id="clipPath20"
      clipPathUnits="userSpaceOnUse"><path
        id="path18"
        d="M 0,0 H 595.28 V 841.89 H 0 Z" /></clipPath><clipPath
      id="clipPath32"
      clipPathUnits="userSpaceOnUse"><path
        id="path30"
        d="M 139.7716,408.0729 H 246.839 V 568.7206 H 139.7716 Z" /></clipPath><clipPath
      id="clipPath44"
      clipPathUnits="userSpaceOnUse"><path
        id="path42"
        d="M 340.2978,375.9381 H 455.4924 V 540.8396 H 340.2978 Z" /></clipPath><clipPath
      id="clipPath56"
      clipPathUnits="userSpaceOnUse"><path
        id="path54"
        d="m 256.4675,540.8565 23.1127,-0.0177 -0.1143,-150.026 -23.1127,0.0176 z" /></clipPath><clipPath
      id="clipPath62"
      clipPathUnits="userSpaceOnUse"><path
        id="path60"
        d="M 0,0 H 595.28 V 841.89 H 0 Z" /></clipPath><clipPath
      id="clipPath74"
      clipPathUnits="userSpaceOnUse"><path
        id="path72"
        d="m 282.5659,424.0987 h 84.54216 V 579.6553 H 282.5659 Z" /></clipPath><clipPath
      id="clipPath86"
      clipPathUnits="userSpaceOnUse"><path
        id="path84"
        d="m 256.4781,579.8635 23.1968,-0.2196 -0.2195,-23.1967 -23.1968,0.2195 z" /></clipPath><clipPath
      id="clipPath92"
      clipPathUnits="userSpaceOnUse"><path
        id="path90"
        d="M 0,0 H 595.28 V 841.89 H 0 Z" /></clipPath><clipPath
      id="clipPath104"
      clipPathUnits="userSpaceOnUse"><path
        id="path102"
        d="m 0,286.9282 h 595.28 v 87.04006 H 0 Z" /></clipPath></defs><g
    transform="matrix(1.3333333,0,0,-1.3333333,0,1122.5197)"
    id="g10"><g
      id="g12" /><g
      id="g14"><g
        clip-path="url(#clipPath20)"
        id="g16"><path
          id="path22"
          style="fill:#ffffff;fill-opacity:1;fill-rule:nonzero;stroke:none"
          d="M 0,841.89 H 596 V -0.1099854 H 0 Z" /><path
          id="path24"
          style="fill:#ffffff;fill-opacity:1;fill-rule:nonzero;stroke:none"
          d="M 0,841.89 H 595.28 V 0 H 0 Z" /></g></g><g
      id="g26"><g
        clip-path="url(#clipPath32)"
        id="g28"><g
          transform="matrix(1,0,0,-1,151.2876,557.2205)"
          id="g34"><path
            id="path36"
            style="fill:none;stroke:#000000;stroke-width:21;stroke-linecap:butt;stroke-linejoin:miter;stroke-miterlimit:4;stroke-dasharray:none;stroke-opacity:1"
            d="M 0.2081502,137.1834 0,0.2821088 C 7.179543,0.3030379 14.3596,0.2280919 21.53724,0.06073406 28.39483,-0.09916135 35.44386,0.07757312 42.19151,0.3474529 48.99554,0.619588 55.61952,1.09174 61.29126,3.810834 71.67166,8.787309 76.62367,18.89007 76.87363,31.20874 77.08396,41.5749 73.50946,50.43256 65.66685,56.47628 60.491,60.46494 54.05587,62.54275 47.18988,63.74519 40.27839,64.95559 32.88064,65.31602 25.68135,65.2467 17.96444,65.17239 10.23384,65.06324 2.516711,65.0509 c 7.771639,0.04271 15.545009,0.01811 23.316579,-0.042 4.77476,-0.03694 9.64301,0.05738 14.45292,0.3652 4.80988,0.30782 9.56139,0.82906 14.10304,1.64372 8.49558,1.52389 16.37552,4.19629 22.08006,10.34453 6.40027,6.89808 7.99974,16.09963 7.49561,25.91725 -0.39967,7.7832 -2.30062,14.6542 -7.23167,20.5262 -9.60144,11.4337 -24.88408,12.9765 -40.33162,13.4617 -7.25595,0.2278 -15.0288,0.5111 -22.5711,0.3136 -4.542182,-0.1189 -9.081436,-0.2371 -13.6223798,-0.3977 z" /></g></g></g><g
      id="g38"><g
        clip-path="url(#clipPath44)"
        id="g40"><g
          transform="matrix(1,0,0,-1,351.7978,529.3397)"
          id="g46"><path
            id="path48"
            style="fill:none;stroke:#000000;stroke-width:21;stroke-linecap:butt;stroke-linejoin:miter;stroke-miterlimit:4;stroke-dasharray:none;stroke-opacity:1"
            d="M 7.588279e-4,102.2154 C -0.02397401,105.943 0.5565088,109.4569 1.65148,112.6765 c 1.113623,3.2744 2.732535,6.21 4.584847,8.9021 3.4028,4.9454 7.625713,9.1777 12.817783,12.3867 4.53724,2.8042 9.7787,4.8987 15.40041,6.2492 6.086,1.462 12.62414,2.0481 19.09782,1.4629 13.99595,-1.2654 27.06522,-8.0317 33.5223,-18.6026 2.93523,-4.8053 4.32339,-10.1212 4.86684,-15.6508 0.52144,-5.3057 0.41691,-11.11158 -2.06191,-17.23263 C 86.83132,82.66422 80.80931,78.24513 73.53235,75.11682 65.8074,71.79592 56.65436,69.84296 47.89185,68.45247 31.96391,65.92493 14.77738,62.30446 7.82989,48.02706 -4.049192,23.61501 15.59721,4.008456 39.27811,0.5508836 50.34693,-1.06524 61.71743,0.9558744 70.79191,5.546743 c 5.01763,2.538468 9.432,5.979477 12.75111,10.607347 1.28597,1.79305 2.40068,3.7619 3.3132,5.91741 0.46025,1.08722 0.86853,2.218 1.15143,3.40773 0.28639,1.20441 0.43503,2.43746 0.44274,3.67544" /></g></g></g><g
      id="g50"><g
        clip-path="url(#clipPath56)"
        id="g52"><g
          clip-path="url(#clipPath62)"
          id="g58"><g
            transform="matrix(1,-7.61664e-4,-7.61664e-4,-1,267.9667,539.8397)"
            id="g64"><path
              id="path66"
              style="fill:none;stroke:#000000;stroke-width:21;stroke-linecap:butt;stroke-linejoin:miter;stroke-miterlimit:4;stroke-dasharray:none;stroke-opacity:1"
              d="M 0.1127118,148.0101 0,0" /></g></g></g></g><g
      id="g68"><g
        clip-path="url(#clipPath74)"
        id="g70"><g
          transform="matrix(1,0,0,-1,283.5664,568.1553)"
          id="g76"><path
            id="path78"
            style="fill:none;stroke:#000000;stroke-width:21;stroke-linecap:butt;stroke-linejoin:miter;stroke-miterlimit:4;stroke-dasharray:none;stroke-opacity:1"
            d="M 33.55963,143.0177 34.08937,0.1775009 82.50318,0 0,0.00382322" /></g></g></g><g
      id="g80"><g
        clip-path="url(#clipPath86)"
        id="g82"><g
          clip-path="url(#clipPath92)"
          id="g88"><g
            transform="matrix(0.9999552,-0.00946367,-0.00946367,-0.9999552,257.4686,568.354)"
            id="g94"><path
              id="path96"
              style="fill:none;stroke:#0171ba;stroke-width:21;stroke-linecap:butt;stroke-linejoin:miter;stroke-miterlimit:4;stroke-dasharray:none;stroke-opacity:1"
              d="M 20.99906,0 0,0.1987328" /></g></g></g></g><g
      id="g98"><g
        clip-path="url(#clipPath104)"
        id="g100"><g
          transform="translate(15.64401,311.5682)"
          id="g106"><text
            id="text110"
            style="font-variant:normal;font-weight:normal;font-size:44px;font-family:Graphik;-inkscape-font-specification:Graphik-Regular;writing-mode:lr-tb;fill:#000000;fill-opacity:1;fill-rule:nonzero;stroke:none"
            transform="scale(1,-1)"><tspan
              id="tspan108"
              y="0"
              x="0 27.368 43.692001 67.452003 93.764 121.352 146.34399 172.65601 200.244 226.38 242.26401 269.85199 294.84399 311.388 323.048 335.23599 359.92001 371.57999 399.168 425.74399 437.008 463.14401 478.76401 489.98401 516.56 542.87201">Brandenburger IT Solutions</tspan></text>
</g></g></g></g></svg>