<?xml version="1.0" encoding="UTF-8" standalone="no"?>
<!-- Created with Inkscape (http://www.inkscape.org/) -->
<svg
   xmlns:svg="http://www.w3.org/2000/svg"
   xmlns="http://www.w3.org/2000/svg"
   version="1.0"
   width="885.82672"
   height="152.71654"
   id="svg2209">
  <defs
     id="defs2211" />
  <g
     transform="translate(-279.28549,-147.24896)"
     id="layer1">
    <g
       transform="translate(17.716506,17.798684)"
       id="g2441">
      <path
         d="M 534.56356,259.16813 C 515.44369,264.04809 501.20385,264.36813 490.80391,264.36813 C 460.64415,264.36813 425.76439,249.08823 425.76439,206.28857 C 425.76439,163.64887 455.76419,147.24896 497.28388,147.24896 C 504.72377,147.24896 520.48367,148.04899 531.52356,152.28894 L 531.52356,177.32877 C 522.08368,171.80879 508.64375,169.64884 501.44382,169.64884 C 476.96399,169.64884 456.88414,179.88877 456.88414,206.28857 C 456.88414,228.52837 472.64403,241.96831 494.64387,241.96831 C 498.72386,241.96831 502.64384,241.32829 505.36379,240.04826 L 505.36379,217.64844 L 487.68391,217.64844 L 487.68391,196.20861 L 534.56356,196.20861 L 534.56356,259.16813"
         style="fill:#ffffff;fill-rule:nonzero;stroke:none"
         id="path8" />
      <path
         d="M 560.16339,149.16894 L 640.00282,149.16894 L 640.00282,170.60883 L 590.40316,170.60883 L 590.40316,193.96865 L 637.28281,193.96865 L 637.28281,215.40848 L 590.40316,215.40848 L 590.40316,241.00832 L 641.76278,241.00832 L 641.76278,262.44815 L 560.16339,262.44815 L 560.16339,149.16894"
         style="fill:#ffffff;fill-rule:nonzero;stroke:none"
         id="path10" />
      <path
         d="M 694.6424,214.44849 L 703.92234,214.44849 C 714.32221,214.44849 726.16214,215.5685 726.16214,227.88836 C 726.16214,239.40831 714.64225,241.00832 703.6023,241.00832 L 694.6424,241.00832 L 694.6424,214.44849 z M 664.48258,262.44815 L 712.16227,262.44815 C 732.48209,262.44815 756.3219,256.76815 756.3219,229.64838 C 756.3219,215.88848 748.48202,207.72856 733.44208,204.68856 L 733.44208,204.36853 C 746.08198,200.12858 753.36198,192.20862 753.36198,177.88877 C 753.36198,158.44887 737.68209,149.16894 716.56223,149.16894 L 664.48258,149.16894 L 664.48258,262.44815 z M 694.6424,170.60883 L 703.44234,170.60883 C 713.52224,170.60883 723.20216,171.56883 723.20216,181.9687 C 723.20216,191.56867 712.96224,193.96865 703.1223,193.96865 L 694.6424,193.96865 L 694.6424,170.60883"
         style="fill:#ffffff;fill-rule:nonzero;stroke:none"
         id="path12" />
      <path
         d="M 778.16178,149.16894 L 858.00115,149.16894 L 858.00115,170.60883 L 808.32154,170.60883 L 808.32154,193.96865 L 855.20118,193.96865 L 855.20118,215.40848 L 808.32154,215.40848 L 808.32154,241.00832 L 859.76117,241.00832 L 859.76117,262.44815 L 778.16178,262.44815 L 778.16178,149.16894"
         style="fill:#ffffff;fill-rule:nonzero;stroke:none"
         id="path14" />
      <path
         d="M 912.64079,170.60883 L 920.64069,170.60883 C 932.08063,170.60883 942.64053,172.52882 942.64053,183.08871 C 942.64053,195.88863 930.32061,196.20861 920.64069,196.20861 L 912.64079,196.20861 L 912.64079,170.60883 z M 882.48097,262.44815 L 912.64079,262.44815 L 912.64079,217.64844 L 918.96074,217.64844 C 930.16065,217.64844 934.08063,222.5284 940.24055,241.96831 L 946.72052,262.44815 L 978.16031,262.44815 L 967.12036,231.56837 C 961.52043,217.80846 960.80041,209.24855 951.12049,206.60855 L 951.12049,206.28857 C 965.68037,202.84859 972.80035,192.84864 972.80035,177.72875 C 972.80035,158.28891 956.48045,149.16894 936.32058,149.16894 L 882.48097,149.16894 L 882.48097,262.44815"
         style="fill:#ffffff;fill-rule:nonzero;stroke:none"
         id="path16" />
      <path
         d="M 997.12016,149.16894 L 1027.3599,149.16894 L 1027.3599,262.44815 L 997.12016,262.44815 L 997.12016,149.16894 z "
         style="fill:#ffffff;fill-rule:nonzero;stroke:none"
         id="path18" />
      <path
         d="M 1071.5996,171.56883 L 1043.6798,171.56883 L 1043.6798,149.16894 L 1129.6792,149.16894 L 1129.6792,171.56883 L 1101.7594,171.56883 L 1101.7594,262.44815 L 1071.5996,262.44815 L 1071.5996,171.56883"
         style="fill:#ffffff;fill-rule:nonzero;stroke:none"
         id="path20" />
      <path
         d="M 279.28549,149.16894 L 392.64465,149.16894 L 392.64465,262.52809 L 279.28549,262.52809 L 279.28549,149.16894 z "
         style="fill:#0171ba;fill-rule:nonzero;stroke:none"
         id="path22" />
    </g>
  </g>
</svg>
